<?xml version="1.0" encoding="utf-8"?>
<!-- Generator: Adobe Illustrator 21.1.0, SVG Export Plug-In . SVG Version: 6.00 Build 0)  -->
<svg version="1.1" id="Modo_de_aislamiento" xmlns="http://www.w3.org/2000/svg" xmlns:xlink="http://www.w3.org/1999/xlink"
	 x="0px" y="0px" viewBox="0 0 376.3 78.6" style="enable-background:new 0 0 376.3 78.6;" xml:space="preserve">
<style type="text/css">
	.st0{fill:#6C9B3B;}
	.st1{fill:#00369C;}
	.st2{fill:#C22821;}
</style>
<g>
	<g>
		<path d="M174.5,45.2c0,2.9-0.9,7.6-5.2,7.6c-3.8,0-3.9-3.8-3.9-6.6V34h-6v14.5c0,5.2,2.4,9,7.8,9c3.1,0,5.7-1.4,7.5-3.6h0.1v3.1
			h5.7V34h-6V45.2z M155.8,46.1v-2.9c0-6.8-2.9-9.7-9.9-9.7c-2.6,0-5.7,0.7-8,1.7l0.2,5.1c2-1.5,4.5-2.5,7.1-2.5
			c3.5,0,5.2,1.2,5.2,4.9h-3.3c-2.5,0-5.4,0.2-7.7,1.3c-2.3,1.1-3.9,3.1-3.9,6.5c0,4.4,4,6.8,8,6.8c2.7,0,5.7-1.4,7.1-4h0.1
			c0,0.7,0,2.2,0.3,3.4h5.3c-0.1-1.8-0.2-3.4-0.3-5.1C155.8,50.1,155.8,48.4,155.8,46.1z M149.1,51.1c-0.9,1.3-2.4,2.1-4.2,2.1
			c-2.1,0-3.8-0.8-3.8-2.8c0-3.5,4-4,6.6-4h2.6C150.4,48.1,150.1,49.8,149.1,51.1z M195.4,52.8c-4.2,0-6.2-3.3-6.2-7.5
			c0-4.3,2.4-7.3,6.1-7.3c1.8,0,3,0.4,4,0.8l0.5-4.7c-1.7-0.5-3.4-0.8-5.8-0.8c-7.2,0-11.1,5.3-11.1,11.9c0,7,3.8,12.1,11.3,12.1
			c2.4,0,4.2-0.2,6-0.8l-0.3-4.9C198.9,52.2,197.1,52.8,195.4,52.8z M101.4,25.9L89.3,56.9h6.4l2.7-7.1l10.9-4.9h-9.1l4.5-12.8h0.1
			l4.5,12.8l4.4,12h6.9l-12.2-31.1H101.4z M135.5,33.7c-0.6-0.2-1.3-0.2-1.8-0.2c-3.5,0-6,3.6-6.3,5.7h-0.1V34H122v22.9h6v-8.4
			c0-3.3,0-9.3,4.9-9.3c1.1,0,2.1,0.2,2.7,0.5V33.7z M212.5,33.5c-6.8,0-12,4.6-12,12.2c0,6.6,4.4,11.8,12,11.8
			c7.6,0,12-5.2,12-11.8C224.5,38.1,219.3,33.5,212.5,33.5z M212.5,52.8c-4.5,0-5.7-4.1-5.7-7.9c0-3.4,1.9-6.8,5.7-6.8
			c3.9,0,5.8,3.3,5.8,6.8C218.3,48.7,217,52.8,212.5,52.8z"/>
		<g>
			<path class="st0" d="M78.3,43.7c-0.6,0-1.3-0.1-1.9-0.1c-15.8,0-28.7,12.9-28.7,28.7c0,1.8,0.2,3.5,0.5,5.2
				C64.2,73.8,76.4,60.4,78.3,43.7"/>
		</g>
		<g>
			<path class="st0" d="M2.5,43.7c-0.8,0-1.5,0-2.3,0.1c1.9,16.7,14.3,30.3,30.5,33.9c0.3-1.7,0.5-3.5,0.5-5.3
				C31.2,56.5,18.4,43.7,2.5,43.7"/>
		</g>
		<g>
			<path class="st1" d="M2.5,39.4c3.2,0,6.3,0.4,9.2,1.3c1-14.3,13-25.7,27.6-25.7c14.6,0,26.6,11.4,27.6,25.8
				c3-0.9,6.2-1.4,9.5-1.4c0.7,0,1.4,0,2.1,0.1c0-0.1,0-0.2,0-0.2C78.6,17.6,61,0,39.3,0C17.6,0,0,17.6,0,39.3c0,0.1,0,0.2,0,0.3
				C0.8,39.5,1.7,39.4,2.5,39.4"/>
		</g>
		<g>
			<path class="st2" d="M43.5,72.4c0-13.3,7.9-24.8,19.3-30c-0.2-12.8-10.6-23.1-23.5-23.1c-12.8,0-23.2,10.3-23.4,23
				c11.6,5.1,19.6,16.7,19.6,30.1c0,2-0.2,4-0.5,5.9c1.4,0.2,2.9,0.2,4.4,0.2c1.6,0,3.2-0.1,4.7-0.3C43.7,76.4,43.5,74.4,43.5,72.4"
				/>
		</g>
	</g>
	<g>
		<path d="M250.3,28.7c-2-1-4.8-1.3-7-1.3c-8.1,0-12.7,5.7-12.7,13.5c0,7.9,4.4,13.5,12.7,13.5c2.1,0,5.2-0.3,7-1.3l0.2,2.7
			c-1.7,1-5.2,1.3-7.2,1.3c-9.9,0-15.8-6.5-15.8-16.2c0-9.5,6.1-16.2,15.8-16.2c1.8,0,5.6,0.3,7.2,1.2L250.3,28.7z"/>
		<path d="M264,33.1c7.4,0,10.7,5.7,10.7,12c0,6.2-3.3,12-10.7,12s-10.7-5.7-10.7-12C253.3,38.8,256.6,33.1,264,33.1z M264,54.6
			c4.9,0,7.6-4.3,7.6-9.5c0-5.3-2.6-9.5-7.6-9.5s-7.6,4.3-7.6,9.5C256.4,50.4,259.1,54.6,264,54.6z"/>
		<path d="M278.4,38.7c0-2.5,0-3.4-0.2-5.1h2.8V38h0.1c1-2.6,3-4.9,5.9-4.9c0.7,0,1.5,0.1,2,0.3v3c-0.6-0.2-1.3-0.3-2.1-0.3
			c-4.5,0-5.7,5-5.7,9.1v11.3h-2.8V38.7z"/>
		<path d="M299.9,33.1c7.4,0,10.7,5.7,10.7,12c0,6.2-3.3,12-10.7,12c-7.4,0-10.7-5.7-10.7-12C289.2,38.8,292.5,33.1,299.9,33.1z
			 M299.9,54.6c4.9,0,7.6-4.3,7.6-9.5c0-5.3-2.6-9.5-7.6-9.5c-4.9,0-7.6,4.3-7.6,9.5C292.3,50.4,294.9,54.6,299.9,54.6z"/>
		<path d="M314.3,39c0-1.7,0-3.5-0.2-5.4h2.7v4.1h0.1c0.9-2.1,2.6-4.6,7.4-4.6c5.6,0,7.8,3.8,7.8,8.8v14.6h-2.8V42.6
			c0-4.3-1.5-7.1-5.4-7.1c-5.2,0-6.8,4.5-6.8,8.3v12.6h-2.8V39z"/>
		<path d="M353,55.8c-2,0.8-4.5,1.3-6.6,1.3c-7.6,0-10.4-5.1-10.4-12c0-7,3.9-12,9.6-12c6.5,0,9.1,5.2,9.1,11.3v1.4H339
			c0,4.8,2.6,8.7,7.5,8.7c2.1,0,5.1-0.9,6.4-1.7V55.8z M351.6,43.5c0-4-1.6-7.9-5.8-7.9c-4.2,0-6.7,4.2-6.7,7.9H351.6z"/>
		<path d="M358.5,22.9h2.8v33.6h-2.8V22.9z"/>
	</g>
	<g>
		<path d="M371.2,26.2c1.1-0.1,1.8-0.7,1.8-1.9c0-1.5-0.9-2-2.6-2h-2.6v7h1.3v-3h0.8l1.8,3h1.3L371.2,26.2z M369.2,25.3v-2h1.1
			c0.7,0,1.4,0.1,1.4,1c0,0.9-0.7,1-1.4,1H369.2z"/>
		<path d="M370.2,19.7c-3.4,0-6.1,2.8-6.1,6.2c0,3.4,2.7,6.2,6.1,6.2c3.3,0,6.1-2.8,6.1-6.2C376.3,22.4,373.6,19.7,370.2,19.7z
			 M370.2,30.8c-2.6,0-4.6-2.1-4.6-5c0-2.9,2.1-5,4.6-5c2.5,0,4.6,2.1,4.6,5C374.8,28.7,372.8,30.8,370.2,30.8z"/>
	</g>
</g>
</svg>
