<svg id="Capa_1" data-name="Capa 1" xmlns="http://www.w3.org/2000/svg" viewBox="0 0 167.86 36.7"><defs><style>.cls-1{fill:#141412;}.cls-2{fill:#fff;}.cls-3{fill:#72a538;}.cls-4{fill:#31408c;}.cls-5{fill:#c4142d;}</style></defs><title>Logo _MAQ</title><path class="cls-1" d="M86.17,24.19c-1.83,0-2.71-1.42-2.71-3.26s1-3.17,2.65-3.17a3.89,3.89,0,0,1,1.77.37l.23-2.06a8.3,8.3,0,0,0-2.53-.33c-3.13,0-4.84,2.29-4.84,5.19,0,3.05,1.65,5.29,4.93,5.29a8.87,8.87,0,0,0,2.61-.33l-.11-2.16a5.67,5.67,0,0,1-2,.46m80.21-12.3c0-.66-.39-.91-1.13-.91h-1.14v3.1h.57V12.75H165l.79,1.33h.59l-.83-1.36a.76.76,0,0,0,.8-.83m-1.7.41v-.88h.51c.3,0,.63.06.63.43s-.3.45-.63.45ZM93.63,15.74A5,5,0,0,0,88.4,21a5.24,5.24,0,0,0,10.48,0,5,5,0,0,0-5.25-5.3m0,8.45c-2,0-2.51-1.81-2.51-3.46,0-1.49.82-3,2.51-3s2.53,1.44,2.53,3-.53,3.46-2.53,3.46M77.07,20.86c0,1.29-.41,3.33-2.3,3.33-1.67,0-1.69-1.65-1.69-2.87V16h-2.6v6.32c0,2.25,1,3.93,3.4,3.93a4.17,4.17,0,0,0,3.29-1.6h0V26h2.47V16h-2.6Zm-32-8.45L39.82,26h2.82l1.19-3.12,4.74-2.14h-4l2-5.6h0l2,5.6L50.49,26h3L48.18,12.41Zm23.77,8.83V20c0-3-1.26-4.22-4.31-4.22a9.06,9.06,0,0,0-3.48.75l.07,2.24a5.27,5.27,0,0,1,3.1-1.08c1.53,0,2.26.54,2.26,2.15H65.08a8,8,0,0,0-3.37.58A2.94,2.94,0,0,0,60,23.24c0,1.91,1.73,3,3.5,3a3.56,3.56,0,0,0,3.09-1.74h0A12,12,0,0,0,66.75,26H69c-.06-.79-.1-1.49-.12-2.25s0-1.49,0-2.5M66,23.41a2.17,2.17,0,0,1-1.82.9c-.93,0-1.65-.37-1.65-1.23,0-1.53,1.73-1.73,2.9-1.73h1.13A3.22,3.22,0,0,1,66,23.41m-6-7.6a3.17,3.17,0,0,0-.8-.07,3,3,0,0,0-2.73,2.51h0V16H54.11V26h2.6V22.31c0-1.45,0-4.09,2.12-4.09a2.59,2.59,0,0,1,1.17.22Zm105.16-6a2.74,2.74,0,1,0,2.7,2.74,2.73,2.73,0,0,0-2.7-2.74m0,4.94a2.08,2.08,0,0,1-2-2.2,2.05,2.05,0,1,1,4.09,0,2.08,2.08,0,0,1-2,2.2m-15,1.38H149v5.45c0,1.65-.69,3.6-2.92,3.6-1.68,0-2.34-1.2-2.34-3.06v-6h-1.22v6.3c0,2.17.93,3.79,3.37,3.79a3.13,3.13,0,0,0,3.19-2h0V26h1.17c-.07-.79-.07-1.56-.07-2.32ZM131,26h1.21V16.12H131Zm7.92-9a5.8,5.8,0,0,1,2.11.5l.09-1.15a7.18,7.18,0,0,0-2.37-.39c-2.92,0-4.87,2.13-4.87,5.16,0,2.75,1.54,5.16,4.71,5.16a7.28,7.28,0,0,0,2.53-.35L141,24.73a6.6,6.6,0,0,1-2.23.44c-2.22,0-3.57-1.88-3.57-4.12,0-2.4,1.33-4.12,3.71-4.12M131,14.12h1.22V12.5H131Zm34.11,5.44c0-2.57-1-3.67-3.46-3.67a7.7,7.7,0,0,0-2.9.68v1.17a5.33,5.33,0,0,1,2.9-.81c1.64,0,2.24.85,2.24,2.53V20h-.23c-2.55,0-6.07.15-6.07,3.46,0,.89.44,2.78,3.25,2.78a3.47,3.47,0,0,0,3.13-1.82h0V26h1.2a13.61,13.61,0,0,1-.1-2.07Zm-1.22,2.05c0,1.07-.06,3.56-2.92,3.56-1.12,0-2.05-.48-2.05-1.78,0-2.17,2.52-2.38,4.62-2.38h.35ZM153.72,18h0v-1.9h-1.21a17.13,17.13,0,0,1,.08,2.2V26h1.21V21.11c0-1.78.52-3.94,2.46-3.94a3.15,3.15,0,0,1,.89.11V16a4.09,4.09,0,0,0-.85-.11A2.94,2.94,0,0,0,153.72,18m-30,8H125V16.12h-1.22Zm1.16-13.48h-1.22v1.62h1.22ZM127.34,26h1.22V11.48h-1.22Zm-6-9.86h-1.22v5.45c0,1.65-.69,3.6-2.92,3.6-1.68,0-2.33-1.2-2.33-3.06v-6h-1.22v6.3c0,2.17.93,3.79,3.36,3.79a3.12,3.12,0,0,0,3.19-2h0V26h1.18a22.77,22.77,0,0,1-.08-2.32Zm-9.58,3.11c0-3.65-1.88-7-5.94-7s-6,3.32-5.94,7c0,4.14,2.06,7,5.94,7a5,5,0,0,0,.56,0,4.37,4.37,0,0,0,.54-.08l2.4,2.38h1.78l-2.84-2.74c2.28-.93,3.46-3.35,3.5-6.52m-5.94,5.82c-3.17,0-4.6-3-4.6-5.82s1.43-5.81,4.6-5.81,4.6,3,4.6,5.81-1.43,5.82-4.6,5.82"/><path class="cls-2" d="M36.7,18.35A18.35,18.35,0,1,1,18.35,0,18.34,18.34,0,0,1,36.7,18.35"/><path class="cls-3" d="M35.12,20.25c-.27,0-.55,0-.82,0A12.34,12.34,0,0,0,22,32.55a12.58,12.58,0,0,0,.2,2.23,16.91,16.91,0,0,0,13-14.53"/><path class="cls-3" d="M2.56,20.22c-.32,0-.65,0-1,0a16.87,16.87,0,0,0,13.1,14.55,12.83,12.83,0,0,0,.21-2.26A12.35,12.35,0,0,0,2.56,20.22"/><path class="cls-4" d="M2.56,18.41A14.21,14.21,0,0,1,6.5,19,11.88,11.88,0,0,1,30.21,19a14.15,14.15,0,0,1,4.09-.6c.31,0,.62,0,.92,0,0,0,0-.07,0-.1a16.88,16.88,0,0,0-33.75,0v.11c.36,0,.72,0,1.08,0"/><path class="cls-5" d="M20.15,32.55a14.16,14.16,0,0,1,8.27-12.86,10.07,10.07,0,0,0-20.14-.07,14.16,14.16,0,0,1,8.43,12.93,14.34,14.34,0,0,1-.23,2.56c.61.06,1.24.1,1.87.1a17,17,0,0,0,2-.12,14.12,14.12,0,0,1-.23-2.54"/></svg>